<?xml version="1.0" standalone="no"?>
<!DOCTYPE svg PUBLIC "-//W3C//DTD SVG 20010904//EN"
 "http://www.w3.org/TR/2001/REC-SVG-20010904/DTD/svg10.dtd">
<svg version="1.0" xmlns="http://www.w3.org/2000/svg"
 width="148.000000pt" height="148.000000pt" viewBox="0 0 148.000000 148.000000"
 preserveAspectRatio="xMidYMid meet">
<metadata>
Created by potrace 1.11, written by Peter Selinger 2001-2013
</metadata>
<g transform="translate(0.000000,148.000000) scale(0.100000,-0.100000)"
fill="#000000" stroke="none">
<path d="M614 1430 c-56 -22 -71 -100 -29 -143 32 -31 64 -38 103 -21 61 25
72 105 21 148 -31 27 -58 31 -95 16z"/>
<path d="M984 1354 c-125 -42 -139 -219 -22 -280 99 -51 214 13 223 123 9 110
-97 193 -201 157z"/>
<path d="M282 1340 c-42 -39 -14 -112 42 -112 60 0 92 77 46 114 -29 24 -61
23 -88 -2z"/>
<path d="M112 1184 c-28 -19 -28 -49 0 -68 19 -13 25 -14 43 -2 26 17 26 55 0
72 -18 12 -24 11 -43 -2z"/>
<path d="M648 1053 c-6 -7 -14 -28 -18 -46 -4 -17 -12 -31 -18 -29 -7 1 -12
-5 -12 -13 0 -8 7 -15 15 -15 12 0 15 -13 15 -60 0 -47 3 -60 15 -60 12 0 15
13 15 60 0 47 3 60 15 60 8 0 15 7 15 15 0 8 -6 14 -12 13 -8 -2 -14 9 -16 25
-3 22 1 30 17 34 12 3 21 11 21 17 0 16 -38 15 -52 -1z"/>
<path d="M216 1048 c-3 -7 -4 -58 -3 -112 1 -69 6 -101 15 -104 8 -2 12 11 12
45 0 51 12 73 41 73 25 0 32 -15 30 -71 0 -37 3 -49 14 -49 12 0 15 14 15 59
0 80 -28 109 -81 81 -18 -10 -19 -7 -19 40 0 45 -15 68 -24 38z"/>
<path d="M550 947 c0 -94 3 -114 15 -114 12 0 15 20 15 114 0 94 -3 113 -15
113 -12 0 -15 -19 -15 -113z"/>
<path d="M5 1000 c-10 -17 5 -50 24 -50 27 0 42 20 30 42 -10 19 -44 24 -54 8z"/>
<path d="M409 970 c-9 -5 -22 -23 -29 -39 -25 -63 35 -118 100 -91 19 8 28 16
22 22 -6 6 -17 6 -28 1 -28 -14 -45 -10 -60 12 -13 20 -12 21 41 19 35 -1 55
3 56 10 6 56 -53 95 -102 66z m66 -26 c20 -20 17 -23 -24 -28 -35 -4 -55 19
-30 35 21 13 36 11 54 -7z"/>
<path d="M754 970 c-42 -17 -53 -82 -20 -115 28 -28 59 -31 95 -11 27 15 12
32 -16 18 -19 -10 -57 0 -68 17 -7 12 -4 12 65 15 42 1 45 3 42 26 -4 28 -36
60 -61 59 -9 0 -25 -4 -37 -9z m55 -26 c18 -13 20 -19 10 -24 -8 -4 -25 -6
-39 -5 -14 2 -29 4 -34 4 -10 1 23 41 33 41 4 0 17 -7 30 -16z"/>
<path d="M889 923 c-1 -62 0 -85 7 -92 9 -9 17 11 20 50 4 59 10 69 38 69 28
0 36 -16 36 -76 0 -42 12 -59 23 -31 8 21 -3 110 -15 124 -12 15 -68 14 -68
-1 0 -6 -5 -5 -12 2 -22 22 -28 13 -29 -45z"/>
<path d="M1214 930 c-77 -35 -117 -95 -117 -176 0 -203 279 -264 364 -79 21
46 23 84 9 137 -29 105 -157 164 -256 118z"/>
<path d="M158 843 c-3 -5 -4 -46 -4 -92 1 -58 5 -86 14 -88 15 -6 18 172 3
182 -5 3 -11 2 -13 -2z"/>
<path d="M7 774 c-11 -11 -8 -182 3 -189 10 -6 14 19 10 63 -1 20 1 22 17 14
26 -13 55 -6 75 18 20 25 16 57 -12 84 -17 18 -24 19 -49 9 -19 -7 -31 -7 -33
-1 -2 5 -7 6 -11 2z m81 -27 c32 -21 -4 -85 -38 -67 -26 14 -33 40 -15 60 17
19 31 20 53 7z"/>
<path d="M216 738 c2 -64 2 -66 24 -78 14 -8 26 -8 40 0 14 8 20 8 20 0 0 -6
5 -8 10 -5 6 3 10 34 10 68 0 67 -14 68 -24 2 -4 -21 -12 -42 -18 -46 -18 -11
-38 1 -39 25 -3 59 -5 70 -14 73 -7 2 -10 -14 -9 -39z"/>
<path d="M368 769 c-28 -16 -22 -45 12 -59 17 -7 30 -16 30 -20 0 -15 -13 -18
-36 -10 -19 7 -24 6 -24 -5 0 -8 3 -15 8 -16 4 0 17 -2 29 -5 20 -3 53 18 53
34 -1 16 -17 31 -45 42 -21 8 -26 13 -16 19 7 5 22 6 32 4 23 -6 26 12 3 21
-21 8 -26 7 -46 -5z"/>
<path d="M470 676 c0 -8 4 -17 8 -20 13 -8 35 11 28 23 -10 16 -36 14 -36 -3z"/>
<path d="M220 613 c0 -4 10 -37 22 -75 23 -73 50 -91 62 -43 3 13 11 37 17 52
l11 28 20 -53 c27 -72 44 -66 73 26 20 64 21 73 7 70 -9 -2 -22 -22 -29 -47
-7 -24 -14 -46 -17 -48 -2 -2 -12 19 -21 47 -21 65 -42 63 -65 -4 -18 -54 -20
-53 -40 12 -7 23 -19 42 -27 42 -7 0 -13 -3 -13 -7z"/>
<path d="M479 618 c-1 -1 -2 -36 -3 -76 -1 -60 1 -72 14 -70 19 4 22 139 3
145 -7 3 -14 3 -14 1z"/>
<path d="M561 594 c-49 -63 -7 -133 74 -124 28 3 48 21 36 33 -5 5 -17 4 -30
-3 -25 -13 -57 -6 -65 15 -6 16 15 20 82 16 25 -1 32 2 32 17 0 35 -38 72 -75
72 -24 0 -39 -7 -54 -26z m88 -13 c9 -16 6 -19 -22 -24 -45 -7 -64 5 -42 26
22 23 52 21 64 -2z"/>
<path d="M723 545 c1 -54 5 -75 14 -75 7 0 14 10 14 23 1 12 2 34 3 48 1 26
22 59 37 59 22 0 39 -35 39 -81 0 -37 4 -49 15 -49 12 0 14 12 11 60 -2 33 -9
67 -16 75 -15 18 -61 20 -78 3 -9 -9 -12 -9 -12 0 0 7 -7 12 -15 12 -11 0 -14
-15 -12 -75z"/>
<path d="M118 188 c-2 -7 -4 -33 -3 -58 l1 -45 40 -1 c32 -1 33 -1 7 3 -32 4
-33 5 -33 55 0 45 2 50 20 45 11 -3 23 -1 26 4 3 5 -8 9 -24 9 -17 0 -32 -6
-34 -12z"/>
<path d="M523 140 c0 -36 2 -51 4 -33 2 17 11 34 20 37 20 8 23 5 26 -32 1
-16 5 -28 10 -25 8 5 3 46 -8 63 -4 6 -15 8 -25 5 -15 -5 -20 0 -23 22 -2 15
-4 -1 -4 -37z"/>
<path d="M1220 170 c-3 -19 -2 -48 1 -65 l7 -30 1 33 c1 19 7 35 16 39 21 7
26 1 27 -36 1 -17 4 -31 8 -31 9 0 5 53 -5 70 -4 6 -15 10 -26 7 -13 -4 -19 2
-21 22 -3 23 -4 22 -8 -9z"/>
<path d="M613 165 c-9 -9 -9 -16 -2 -20 6 -4 8 -13 5 -21 -3 -7 -1 -16 4 -19
6 -4 10 11 10 34 0 46 0 46 -17 26z"/>
<path d="M210 145 c-10 -12 -7 -17 14 -26 31 -14 35 -34 6 -26 -11 3 -20 1
-20 -5 0 -5 10 -8 22 -6 30 4 35 34 8 41 -11 3 -20 11 -20 17 0 7 8 10 20 7
11 -3 18 -1 14 4 -8 14 -30 11 -44 -6z"/>
<path d="M336 144 c-9 -8 -16 -19 -16 -24 0 -18 34 -41 52 -37 14 4 18 1 16
-11 -3 -12 -13 -17 -38 -16 -33 2 -33 1 -12 -9 37 -17 57 2 60 59 3 46 1 50
-22 52 -14 1 -32 -5 -40 -14z m52 -22 c4 -28 -24 -40 -45 -19 -14 13 -14 19
-3 32 18 22 44 15 48 -13z"/>
<path d="M428 135 c-8 -19 -8 -28 2 -40 14 -17 46 -20 55 -5 3 6 -1 7 -9 4 -9
-3 -24 -3 -33 0 -14 6 -15 9 -4 16 8 4 22 7 32 5 25 -5 32 23 9 35 -29 15 -39
12 -52 -15z m43 1 c-1 -16 -31 -15 -31 1 0 8 7 13 16 11 8 -2 15 -7 15 -12z"/>
<path d="M714 120 c1 -31 4 -35 28 -36 18 -1 28 5 31 18 6 22 -8 25 -17 3 -10
-27 -35 -17 -39 18 -4 32 -4 32 -3 -3z"/>
<path d="M801 115 c2 -34 3 -36 6 -10 4 28 18 44 36 45 4 0 7 -16 7 -37 0 -42
7 -41 13 2 2 18 10 31 20 33 17 3 18 1 21 -37 0 -11 4 -22 7 -26 4 -3 5 8 4
25 -4 41 -9 45 -66 45 l-49 0 1 -40z"/>
<path d="M993 147 c-10 -17 -12 -57 -2 -63 4 -2 6 4 4 15 -4 22 20 60 31 48 4
-4 8 -17 10 -30 4 -34 6 -34 13 -2 9 42 34 39 42 -5 l6 -35 2 38 c0 20 -2 37
-6 38 -55 7 -94 5 -100 -4z"/>
<path d="M1142 151 c-17 -10 -22 -42 -9 -58 11 -15 43 -17 51 -4 3 4 -6 6 -20
3 -23 -4 -25 -2 -22 24 2 18 9 29 18 29 9 0 14 -7 12 -17 -3 -19 13 -25 23 -9
5 9 -20 41 -33 41 -4 0 -13 -4 -20 -9z"/>
<path d="M1311 115 c2 -33 3 -35 6 -10 2 17 11 35 20 42 13 10 13 12 -6 10
-18 -1 -21 -7 -20 -42z"/>
<path d="M760 140 c0 -5 5 -10 10 -10 6 0 10 5 10 10 0 6 -4 10 -10 10 -5 0
-10 -4 -10 -10z"/>
<path d="M628 83 c7 -3 16 -2 19 1 4 3 -2 6 -13 5 -11 0 -14 -3 -6 -6z"/>
</g>
</svg>
